<svg width="20" height="20" viewBox="0 0 20 20" fill="none" xmlns="http://www.w3.org/2000/svg">
<path d="M11.5459 2.5957C12.036 2.65424 12.4693 2.90893 12.7803 3.21973C13.1352 3.57484 13.4158 4.0892 13.416 4.66602V5.25H16C16.4142 5.25 16.75 5.58579 16.75 6C16.75 6.41421 16.4142 6.75 16 6.75H15.416V15.333C15.416 15.9102 15.1355 16.425 14.7803 16.7803C14.425 17.1355 13.9102 17.417 13.333 17.417H6.66602C6.08911 17.4168 5.57485 17.1353 5.21973 16.7803C4.86454 16.425 4.58301 15.9102 4.58301 15.333V6.75H4C3.58579 6.75 3.25 6.41421 3.25 6C3.25 5.58579 3.58579 5.25 4 5.25H6.58301V4.66602C6.58322 4.08902 6.8646 3.57485 7.21973 3.21973C7.57485 2.8646 8.08902 2.58322 8.66602 2.58301H11.333L11.5459 2.5957ZM6.08301 15.333C6.08301 15.4224 6.13566 15.575 6.28027 15.7197C6.42461 15.864 6.57655 15.9167 6.66602 15.917H13.333C13.4224 15.917 13.575 15.8643 13.7197 15.7197C13.8643 15.575 13.916 15.4224 13.916 15.333V6.75H6.08301V15.333ZM8.66602 4.08301C8.57652 4.08326 8.42466 4.13588 8.28027 4.28027C8.13588 4.42466 8.08326 4.57652 8.08301 4.66602V5.25H11.916V4.66602C11.9158 4.57659 11.8639 4.42457 11.7197 4.28027C11.6115 4.17211 11.4983 4.11529 11.4111 4.09375L11.333 4.08301H8.66602ZM2.00977 2.00977H2V2H2.00977V2.00977Z" fill="#EF4444"/>
</svg>
