<svg width="16" height="16" viewBox="0 0 16 16" fill="none" xmlns="http://www.w3.org/2000/svg">
<path d="M12.7871 0.583008C13.4843 0.583095 14.1535 0.860576 14.6465 1.35352C15.1393 1.84657 15.416 2.51576 15.416 3.21289C15.4158 3.90988 15.1393 4.57839 14.6465 5.07129L13.2607 6.45605C13.2411 6.48158 13.2206 6.50689 13.1973 6.53027C13.1736 6.55393 13.1479 6.57489 13.1221 6.59473L5.74805 13.9707L5.74707 13.9717C5.50566 14.2123 5.20891 14.39 4.88281 14.4893H4.88184L1.97949 15.3701H1.97852C1.79136 15.4263 1.59186 15.4314 1.40234 15.3838C1.21299 15.3361 1.03962 15.2375 0.901367 15.0996C0.763168 14.9615 0.664171 14.788 0.616211 14.5986C0.568332 14.4092 0.57199 14.2097 0.62793 14.0225L0.628906 14.0195L1.50977 11.1182L1.51074 11.1162C1.61076 10.7901 1.78888 10.4929 2.03027 10.252L9.41113 2.86816C9.42906 2.84553 9.44882 2.82364 9.46973 2.80273C9.49037 2.78211 9.51186 2.76284 9.53418 2.74512L10.9277 1.35254C11.4208 0.859649 12.09 0.583055 12.7871 0.583008ZM3.0918 11.3125L3.09082 11.3135C3.02382 11.3803 2.97254 11.4624 2.94434 11.5527L2.94531 11.5537L2.29102 13.708L4.44629 13.0547L4.5127 13.0293C4.57782 13.0004 4.63774 12.9598 4.68848 12.9092L11.6006 5.99414L10.0029 4.39648L3.0918 11.3125ZM12.7871 2.08301C12.4877 2.08306 12.2 2.20239 11.9883 2.41406L11.9873 2.41309L11.0635 3.33594L12.6611 4.93359L13.585 4.01074C13.7966 3.79911 13.9158 3.51221 13.916 3.21289C13.916 2.91365 13.7974 2.62576 13.5859 2.41406C13.3742 2.20246 13.0865 2.08305 12.7871 2.08301ZM0.00976562 0.00976562H0V0H0.00976562V0.00976562Z" fill="#0A0A0A"/>
</svg>
