<svg width="14" height="14" viewBox="0 0 14 14" fill="none" xmlns="http://www.w3.org/2000/svg">
<path d="M11.9561 5.875C12.3703 5.875 12.7061 6.21079 12.7061 6.625C12.7061 9.98462 9.98263 12.7078 6.62305 12.708C3.26346 12.7078 0.539063 9.98462 0.539062 6.625C0.539063 6.211 0.875148 5.87535 1.28906 5.875C1.70328 5.875 2.03906 6.21079 2.03906 6.625C2.03906 9.1562 4.09189 11.2078 6.62305 11.208C9.1542 11.2078 11.2061 9.1562 11.2061 6.625C11.2061 6.21089 11.542 5.87518 11.9561 5.875ZM6.62305 0.541992C6.82196 0.541992 7.01267 0.621067 7.15332 0.761719L9.15332 2.76172C9.44605 3.05463 9.44616 3.52943 9.15332 3.82227C8.86047 4.11494 8.38563 4.11494 8.09277 3.82227L7.37305 3.10254V7.95898C7.3727 8.3729 7.03704 8.70898 6.62305 8.70898C6.20905 8.70898 5.8734 8.3729 5.87305 7.95898V3.10254L5.15332 3.82227C4.86047 4.11494 4.38563 4.11494 4.09277 3.82227C3.79993 3.52943 3.80004 3.05463 4.09277 2.76172L6.09277 0.761719C6.23343 0.621066 6.42413 0.541992 6.62305 0.541992Z" fill="black"/>
</svg>
